<svg xmlns="http://www.w3.org/2000/svg" version="1.1" xmlns:xlink="http://www.w3.org/1999/xlink" xmlns:svgjs="http://svgjs.dev/svgjs" width="1440" height="560" preserveAspectRatio="none" viewBox="0 0 1440 560"><g mask="url(&quot;#SvgjsMask1002&quot;)" fill="none"><rect width="1440" height="560" x="0" y="0" fill="#0e2a47"></rect><path d="M127.03 46.35L191.99 83.85L191.99 158.85L127.03 196.35L62.08 158.85L62.08 83.85zM127.03 271.35L191.99 308.85L191.99 383.85L127.03 421.35L62.08 383.85L62.08 308.85zM62.08 383.85L127.03 421.35L127.03 496.35L62.08 533.85L-2.87 496.35L-2.87 421.35zM127.03 496.35L191.99 533.85L191.99 608.85L127.03 646.35L62.08 608.85L62.08 533.85zM191.99 -66.15L256.94 -28.65L256.94 46.35L191.99 83.85L127.03 46.35L127.03 -28.65zM256.94 46.35L321.89 83.85L321.89 158.85L256.94 196.35L191.99 158.85L191.99 83.85zM256.94 271.35L321.89 308.85L321.89 383.85L256.94 421.35L191.99 383.85L191.99 308.85zM191.99 383.85L256.94 421.35L256.94 496.35L191.99 533.85L127.03 496.35L127.03 421.35zM256.94 496.35L321.89 533.85L321.89 608.85L256.94 646.35L191.99 608.85L191.99 533.85zM321.89 -66.15L386.85 -28.65L386.85 46.35L321.89 83.85L256.94 46.35L256.94 -28.65zM321.89 158.85L386.85 196.35L386.85 271.35L321.89 308.85L256.94 271.35L256.94 196.35zM321.89 383.85L386.85 421.35L386.85 496.35L321.89 533.85L256.94 496.35L256.94 421.35zM386.85 496.35L451.8 533.85L451.8 608.85L386.85 646.35L321.89 608.85L321.89 533.85zM451.8 -66.15L516.76 -28.65L516.76 46.35L451.8 83.85L386.85 46.35L386.85 -28.65zM516.76 46.35L581.71 83.85L581.71 158.85L516.76 196.35L451.8 158.85L451.8 83.85zM451.8 158.85L516.76 196.35L516.76 271.35L451.8 308.85L386.85 271.35L386.85 196.35zM581.71 158.85L646.66 196.35L646.66 271.35L581.71 308.85L516.76 271.35L516.76 196.35zM581.71 383.85L646.66 421.35L646.66 496.35L581.71 533.85L516.76 496.35L516.76 421.35zM776.57 46.35L841.53 83.85L841.53 158.85L776.57 196.35L711.62 158.85L711.62 83.85zM776.57 496.35L841.53 533.85L841.53 608.85L776.57 646.35L711.62 608.85L711.62 533.85zM841.52 -66.15L906.48 -28.65L906.48 46.35L841.52 83.85L776.57 46.35L776.57 -28.65zM841.52 158.85L906.48 196.35L906.48 271.35L841.52 308.85L776.57 271.35L776.57 196.35zM906.48 496.35L971.43 533.85L971.43 608.85L906.48 646.35L841.52 608.85L841.52 533.85zM971.43 -66.15L1036.39 -28.65L1036.39 46.35L971.43 83.85L906.48 46.35L906.48 -28.65zM971.43 158.85L1036.39 196.35L1036.39 271.35L971.43 308.85L906.48 271.35L906.48 196.35zM971.43 383.85L1036.39 421.35L1036.39 496.35L971.43 533.85L906.48 496.35L906.48 421.35zM1101.34 -66.15L1166.29 -28.65L1166.29 46.35L1101.34 83.85L1036.39 46.35L1036.39 -28.65zM1101.34 383.85L1166.29 421.35L1166.29 496.35L1101.34 533.85L1036.39 496.35L1036.39 421.35zM1166.29 496.35L1231.25 533.85L1231.25 608.85L1166.29 646.35L1101.34 608.85L1101.34 533.85zM1296.2 46.35L1361.15 83.85L1361.15 158.85L1296.2 196.35L1231.25 158.85L1231.25 83.85zM1296.2 496.35L1361.15 533.85L1361.15 608.85L1296.2 646.35L1231.25 608.85L1231.25 533.85zM1426.11 271.35L1491.06 308.85L1491.06 383.85L1426.11 421.35L1361.15 383.85L1361.15 308.85zM1361.15 383.85L1426.11 421.35L1426.11 496.35L1361.15 533.85L1296.2 496.35L1296.2 421.35zM1556.02 46.35L1620.97 83.85L1620.97 158.85L1556.02 196.35L1491.06 158.85L1491.06 83.85zM1491.06 158.85L1556.02 196.35L1556.02 271.35L1491.06 308.85L1426.11 271.35L1426.11 196.35zM1556.02 271.35L1620.97 308.85L1620.97 383.85L1556.02 421.35L1491.06 383.85L1491.06 308.85zM1491.06 383.85L1556.02 421.35L1556.02 496.35L1491.06 533.85L1426.11 496.35L1426.11 421.35z" stroke="#03305d" stroke-width="2"></path><path d="M119.53 46.35 a7.5 7.5 0 1 0 15 0 a7.5 7.5 0 1 0 -15 0zM184.49 83.85 a7.5 7.5 0 1 0 15 0 a7.5 7.5 0 1 0 -15 0zM184.49 158.85 a7.5 7.5 0 1 0 15 0 a7.5 7.5 0 1 0 -15 0zM119.53 196.35 a7.5 7.5 0 1 0 15 0 a7.5 7.5 0 1 0 -15 0zM54.58 158.85 a7.5 7.5 0 1 0 15 0 a7.5 7.5 0 1 0 -15 0zM54.58 83.85 a7.5 7.5 0 1 0 15 0 a7.5 7.5 0 1 0 -15 0zM119.53 271.35 a7.5 7.5 0 1 0 15 0 a7.5 7.5 0 1 0 -15 0zM184.49 308.85 a7.5 7.5 0 1 0 15 0 a7.5 7.5 0 1 0 -15 0zM184.49 383.85 a7.5 7.5 0 1 0 15 0 a7.5 7.5 0 1 0 -15 0zM119.53 421.35 a7.5 7.5 0 1 0 15 0 a7.5 7.5 0 1 0 -15 0zM54.58 383.85 a7.5 7.5 0 1 0 15 0 a7.5 7.5 0 1 0 -15 0zM54.58 308.85 a7.5 7.5 0 1 0 15 0 a7.5 7.5 0 1 0 -15 0zM119.53 496.35 a7.5 7.5 0 1 0 15 0 a7.5 7.5 0 1 0 -15 0zM54.58 533.85 a7.5 7.5 0 1 0 15 0 a7.5 7.5 0 1 0 -15 0zM-10.37 496.35 a7.5 7.5 0 1 0 15 0 a7.5 7.5 0 1 0 -15 0zM-10.37 421.35 a7.5 7.5 0 1 0 15 0 a7.5 7.5 0 1 0 -15 0zM184.49 533.85 a7.5 7.5 0 1 0 15 0 a7.5 7.5 0 1 0 -15 0zM184.49 608.85 a7.5 7.5 0 1 0 15 0 a7.5 7.5 0 1 0 -15 0zM119.53 646.35 a7.5 7.5 0 1 0 15 0 a7.5 7.5 0 1 0 -15 0zM54.58 608.85 a7.5 7.5 0 1 0 15 0 a7.5 7.5 0 1 0 -15 0zM184.49 -66.15 a7.5 7.5 0 1 0 15 0 a7.5 7.5 0 1 0 -15 0zM249.44 -28.65 a7.5 7.5 0 1 0 15 0 a7.5 7.5 0 1 0 -15 0zM249.44 46.35 a7.5 7.5 0 1 0 15 0 a7.5 7.5 0 1 0 -15 0zM119.53 -28.65 a7.5 7.5 0 1 0 15 0 a7.5 7.5 0 1 0 -15 0zM314.39 83.85 a7.5 7.5 0 1 0 15 0 a7.5 7.5 0 1 0 -15 0zM314.39 158.85 a7.5 7.5 0 1 0 15 0 a7.5 7.5 0 1 0 -15 0zM249.44 196.35 a7.5 7.5 0 1 0 15 0 a7.5 7.5 0 1 0 -15 0zM249.44 271.35 a7.5 7.5 0 1 0 15 0 a7.5 7.5 0 1 0 -15 0zM314.39 308.85 a7.5 7.5 0 1 0 15 0 a7.5 7.5 0 1 0 -15 0zM314.39 383.85 a7.5 7.5 0 1 0 15 0 a7.5 7.5 0 1 0 -15 0zM249.44 421.35 a7.5 7.5 0 1 0 15 0 a7.5 7.5 0 1 0 -15 0zM249.44 496.35 a7.5 7.5 0 1 0 15 0 a7.5 7.5 0 1 0 -15 0zM314.39 533.85 a7.5 7.5 0 1 0 15 0 a7.5 7.5 0 1 0 -15 0zM314.39 608.85 a7.5 7.5 0 1 0 15 0 a7.5 7.5 0 1 0 -15 0zM249.44 646.35 a7.5 7.5 0 1 0 15 0 a7.5 7.5 0 1 0 -15 0zM314.39 -66.15 a7.5 7.5 0 1 0 15 0 a7.5 7.5 0 1 0 -15 0zM379.35 -28.65 a7.5 7.5 0 1 0 15 0 a7.5 7.5 0 1 0 -15 0zM379.35 46.35 a7.5 7.5 0 1 0 15 0 a7.5 7.5 0 1 0 -15 0zM379.35 196.35 a7.5 7.5 0 1 0 15 0 a7.5 7.5 0 1 0 -15 0zM379.35 271.35 a7.5 7.5 0 1 0 15 0 a7.5 7.5 0 1 0 -15 0zM379.35 421.35 a7.5 7.5 0 1 0 15 0 a7.5 7.5 0 1 0 -15 0zM379.35 496.35 a7.5 7.5 0 1 0 15 0 a7.5 7.5 0 1 0 -15 0zM444.3 533.85 a7.5 7.5 0 1 0 15 0 a7.5 7.5 0 1 0 -15 0zM444.3 608.85 a7.5 7.5 0 1 0 15 0 a7.5 7.5 0 1 0 -15 0zM379.35 646.35 a7.5 7.5 0 1 0 15 0 a7.5 7.5 0 1 0 -15 0zM444.3 -66.15 a7.5 7.5 0 1 0 15 0 a7.5 7.5 0 1 0 -15 0zM509.26 -28.65 a7.5 7.5 0 1 0 15 0 a7.5 7.5 0 1 0 -15 0zM509.26 46.35 a7.5 7.5 0 1 0 15 0 a7.5 7.5 0 1 0 -15 0zM444.3 83.85 a7.5 7.5 0 1 0 15 0 a7.5 7.5 0 1 0 -15 0zM574.21 83.85 a7.5 7.5 0 1 0 15 0 a7.5 7.5 0 1 0 -15 0zM574.21 158.85 a7.5 7.5 0 1 0 15 0 a7.5 7.5 0 1 0 -15 0zM509.26 196.35 a7.5 7.5 0 1 0 15 0 a7.5 7.5 0 1 0 -15 0zM444.3 158.85 a7.5 7.5 0 1 0 15 0 a7.5 7.5 0 1 0 -15 0zM509.26 271.35 a7.5 7.5 0 1 0 15 0 a7.5 7.5 0 1 0 -15 0zM444.3 308.85 a7.5 7.5 0 1 0 15 0 a7.5 7.5 0 1 0 -15 0zM639.16 196.35 a7.5 7.5 0 1 0 15 0 a7.5 7.5 0 1 0 -15 0zM639.16 271.35 a7.5 7.5 0 1 0 15 0 a7.5 7.5 0 1 0 -15 0zM574.21 308.85 a7.5 7.5 0 1 0 15 0 a7.5 7.5 0 1 0 -15 0zM574.21 383.85 a7.5 7.5 0 1 0 15 0 a7.5 7.5 0 1 0 -15 0zM639.16 421.35 a7.5 7.5 0 1 0 15 0 a7.5 7.5 0 1 0 -15 0zM639.16 496.35 a7.5 7.5 0 1 0 15 0 a7.5 7.5 0 1 0 -15 0zM574.21 533.85 a7.5 7.5 0 1 0 15 0 a7.5 7.5 0 1 0 -15 0zM509.26 496.35 a7.5 7.5 0 1 0 15 0 a7.5 7.5 0 1 0 -15 0zM509.26 421.35 a7.5 7.5 0 1 0 15 0 a7.5 7.5 0 1 0 -15 0zM769.07 46.35 a7.5 7.5 0 1 0 15 0 a7.5 7.5 0 1 0 -15 0zM834.03 83.85 a7.5 7.5 0 1 0 15 0 a7.5 7.5 0 1 0 -15 0zM834.03 158.85 a7.5 7.5 0 1 0 15 0 a7.5 7.5 0 1 0 -15 0zM769.07 196.35 a7.5 7.5 0 1 0 15 0 a7.5 7.5 0 1 0 -15 0zM704.12 158.85 a7.5 7.5 0 1 0 15 0 a7.5 7.5 0 1 0 -15 0zM704.12 83.85 a7.5 7.5 0 1 0 15 0 a7.5 7.5 0 1 0 -15 0zM769.07 496.35 a7.5 7.5 0 1 0 15 0 a7.5 7.5 0 1 0 -15 0zM834.03 533.85 a7.5 7.5 0 1 0 15 0 a7.5 7.5 0 1 0 -15 0zM834.03 608.85 a7.5 7.5 0 1 0 15 0 a7.5 7.5 0 1 0 -15 0zM769.07 646.35 a7.5 7.5 0 1 0 15 0 a7.5 7.5 0 1 0 -15 0zM704.12 608.85 a7.5 7.5 0 1 0 15 0 a7.5 7.5 0 1 0 -15 0zM704.12 533.85 a7.5 7.5 0 1 0 15 0 a7.5 7.5 0 1 0 -15 0zM834.02 -66.15 a7.5 7.5 0 1 0 15 0 a7.5 7.5 0 1 0 -15 0zM898.98 -28.65 a7.5 7.5 0 1 0 15 0 a7.5 7.5 0 1 0 -15 0zM898.98 46.35 a7.5 7.5 0 1 0 15 0 a7.5 7.5 0 1 0 -15 0zM834.02 83.85 a7.5 7.5 0 1 0 15 0 a7.5 7.5 0 1 0 -15 0zM769.07 -28.65 a7.5 7.5 0 1 0 15 0 a7.5 7.5 0 1 0 -15 0zM834.02 158.85 a7.5 7.5 0 1 0 15 0 a7.5 7.5 0 1 0 -15 0zM898.98 196.35 a7.5 7.5 0 1 0 15 0 a7.5 7.5 0 1 0 -15 0zM898.98 271.35 a7.5 7.5 0 1 0 15 0 a7.5 7.5 0 1 0 -15 0zM834.02 308.85 a7.5 7.5 0 1 0 15 0 a7.5 7.5 0 1 0 -15 0zM769.07 271.35 a7.5 7.5 0 1 0 15 0 a7.5 7.5 0 1 0 -15 0zM898.98 496.35 a7.5 7.5 0 1 0 15 0 a7.5 7.5 0 1 0 -15 0zM963.93 533.85 a7.5 7.5 0 1 0 15 0 a7.5 7.5 0 1 0 -15 0zM963.93 608.85 a7.5 7.5 0 1 0 15 0 a7.5 7.5 0 1 0 -15 0zM898.98 646.35 a7.5 7.5 0 1 0 15 0 a7.5 7.5 0 1 0 -15 0zM834.02 608.85 a7.5 7.5 0 1 0 15 0 a7.5 7.5 0 1 0 -15 0zM834.02 533.85 a7.5 7.5 0 1 0 15 0 a7.5 7.5 0 1 0 -15 0zM963.93 -66.15 a7.5 7.5 0 1 0 15 0 a7.5 7.5 0 1 0 -15 0zM1028.89 -28.65 a7.5 7.5 0 1 0 15 0 a7.5 7.5 0 1 0 -15 0zM1028.89 46.35 a7.5 7.5 0 1 0 15 0 a7.5 7.5 0 1 0 -15 0zM963.93 83.85 a7.5 7.5 0 1 0 15 0 a7.5 7.5 0 1 0 -15 0zM963.93 158.85 a7.5 7.5 0 1 0 15 0 a7.5 7.5 0 1 0 -15 0zM1028.89 196.35 a7.5 7.5 0 1 0 15 0 a7.5 7.5 0 1 0 -15 0zM1028.89 271.35 a7.5 7.5 0 1 0 15 0 a7.5 7.5 0 1 0 -15 0zM963.93 308.85 a7.5 7.5 0 1 0 15 0 a7.5 7.5 0 1 0 -15 0zM963.93 383.85 a7.5 7.5 0 1 0 15 0 a7.5 7.5 0 1 0 -15 0zM1028.89 421.35 a7.5 7.5 0 1 0 15 0 a7.5 7.5 0 1 0 -15 0zM1028.89 496.35 a7.5 7.5 0 1 0 15 0 a7.5 7.5 0 1 0 -15 0zM898.98 421.35 a7.5 7.5 0 1 0 15 0 a7.5 7.5 0 1 0 -15 0zM1093.84 -66.15 a7.5 7.5 0 1 0 15 0 a7.5 7.5 0 1 0 -15 0zM1158.79 -28.65 a7.5 7.5 0 1 0 15 0 a7.5 7.5 0 1 0 -15 0zM1158.79 46.35 a7.5 7.5 0 1 0 15 0 a7.5 7.5 0 1 0 -15 0zM1093.84 83.85 a7.5 7.5 0 1 0 15 0 a7.5 7.5 0 1 0 -15 0zM1093.84 383.85 a7.5 7.5 0 1 0 15 0 a7.5 7.5 0 1 0 -15 0zM1158.79 421.35 a7.5 7.5 0 1 0 15 0 a7.5 7.5 0 1 0 -15 0zM1158.79 496.35 a7.5 7.5 0 1 0 15 0 a7.5 7.5 0 1 0 -15 0zM1093.84 533.85 a7.5 7.5 0 1 0 15 0 a7.5 7.5 0 1 0 -15 0zM1223.75 533.85 a7.5 7.5 0 1 0 15 0 a7.5 7.5 0 1 0 -15 0zM1223.75 608.85 a7.5 7.5 0 1 0 15 0 a7.5 7.5 0 1 0 -15 0zM1158.79 646.35 a7.5 7.5 0 1 0 15 0 a7.5 7.5 0 1 0 -15 0zM1093.84 608.85 a7.5 7.5 0 1 0 15 0 a7.5 7.5 0 1 0 -15 0zM1288.7 46.35 a7.5 7.5 0 1 0 15 0 a7.5 7.5 0 1 0 -15 0zM1353.65 83.85 a7.5 7.5 0 1 0 15 0 a7.5 7.5 0 1 0 -15 0zM1353.65 158.85 a7.5 7.5 0 1 0 15 0 a7.5 7.5 0 1 0 -15 0zM1288.7 196.35 a7.5 7.5 0 1 0 15 0 a7.5 7.5 0 1 0 -15 0zM1223.75 158.85 a7.5 7.5 0 1 0 15 0 a7.5 7.5 0 1 0 -15 0zM1223.75 83.85 a7.5 7.5 0 1 0 15 0 a7.5 7.5 0 1 0 -15 0zM1288.7 496.35 a7.5 7.5 0 1 0 15 0 a7.5 7.5 0 1 0 -15 0zM1353.65 533.85 a7.5 7.5 0 1 0 15 0 a7.5 7.5 0 1 0 -15 0zM1353.65 608.85 a7.5 7.5 0 1 0 15 0 a7.5 7.5 0 1 0 -15 0zM1288.7 646.35 a7.5 7.5 0 1 0 15 0 a7.5 7.5 0 1 0 -15 0zM1418.61 271.35 a7.5 7.5 0 1 0 15 0 a7.5 7.5 0 1 0 -15 0zM1483.56 308.85 a7.5 7.5 0 1 0 15 0 a7.5 7.5 0 1 0 -15 0zM1483.56 383.85 a7.5 7.5 0 1 0 15 0 a7.5 7.5 0 1 0 -15 0zM1418.61 421.35 a7.5 7.5 0 1 0 15 0 a7.5 7.5 0 1 0 -15 0zM1353.65 383.85 a7.5 7.5 0 1 0 15 0 a7.5 7.5 0 1 0 -15 0zM1353.65 308.85 a7.5 7.5 0 1 0 15 0 a7.5 7.5 0 1 0 -15 0zM1418.61 496.35 a7.5 7.5 0 1 0 15 0 a7.5 7.5 0 1 0 -15 0zM1288.7 421.35 a7.5 7.5 0 1 0 15 0 a7.5 7.5 0 1 0 -15 0zM1548.52 46.35 a7.5 7.5 0 1 0 15 0 a7.5 7.5 0 1 0 -15 0zM1613.47 83.85 a7.5 7.5 0 1 0 15 0 a7.5 7.5 0 1 0 -15 0zM1613.47 158.85 a7.5 7.5 0 1 0 15 0 a7.5 7.5 0 1 0 -15 0zM1548.52 196.35 a7.5 7.5 0 1 0 15 0 a7.5 7.5 0 1 0 -15 0zM1483.56 158.85 a7.5 7.5 0 1 0 15 0 a7.5 7.5 0 1 0 -15 0zM1483.56 83.85 a7.5 7.5 0 1 0 15 0 a7.5 7.5 0 1 0 -15 0zM1548.52 271.35 a7.5 7.5 0 1 0 15 0 a7.5 7.5 0 1 0 -15 0zM1418.61 196.35 a7.5 7.5 0 1 0 15 0 a7.5 7.5 0 1 0 -15 0zM1613.47 308.85 a7.5 7.5 0 1 0 15 0 a7.5 7.5 0 1 0 -15 0zM1613.47 383.85 a7.5 7.5 0 1 0 15 0 a7.5 7.5 0 1 0 -15 0zM1548.52 421.35 a7.5 7.5 0 1 0 15 0 a7.5 7.5 0 1 0 -15 0zM1548.52 496.35 a7.5 7.5 0 1 0 15 0 a7.5 7.5 0 1 0 -15 0zM1483.56 533.85 a7.5 7.5 0 1 0 15 0 a7.5 7.5 0 1 0 -15 0z" fill="#03305d"></path><path d="M24.59 -9.5L67.89 15.5L67.89 65.5L24.59 90.5L-18.71 65.5L-18.71 15.5zM24.59 140.5L67.89 165.5L67.89 215.5L24.59 240.5L-18.71 215.5L-18.71 165.5zM67.89 365.5L111.2 390.5L111.2 440.5L67.89 465.5L24.59 440.5L24.59 390.5zM67.89 515.5L111.2 540.5L111.2 590.5L67.89 615.5L24.59 590.5L24.59 540.5zM154.5 65.5L197.8 90.5L197.8 140.5L154.5 165.5L111.2 140.5L111.2 90.5zM111.2 290.5L154.5 315.5L154.5 365.5L111.2 390.5L67.89 365.5L67.89 315.5zM241.1 215.5L284.4 240.5L284.4 290.5L241.1 315.5L197.8 290.5L197.8 240.5zM284.4 140.5L327.71 165.5L327.71 215.5L284.4 240.5L241.1 215.5L241.1 165.5zM284.4 290.5L327.71 315.5L327.71 365.5L284.4 390.5L241.1 365.5L241.1 315.5zM327.71 365.5L371.01 390.5L371.01 440.5L327.71 465.5L284.4 440.5L284.4 390.5zM327.71 515.5L371.01 540.5L371.01 590.5L327.71 615.5L284.4 590.5L284.4 540.5zM371.01 140.5L414.31 165.5L414.31 215.5L371.01 240.5L327.71 215.5L327.71 165.5zM414.31 215.5L457.62 240.5L457.62 290.5L414.31 315.5L371.01 290.5L371.01 240.5zM371.01 290.5L414.31 315.5L414.31 365.5L371.01 390.5L327.71 365.5L327.71 315.5zM457.62 -9.5L500.92 15.5L500.92 65.5L457.62 90.5L414.31 65.5L414.31 15.5zM500.92 65.5L544.22 90.5L544.22 140.5L500.92 165.5L457.62 140.5L457.62 90.5zM544.22 140.5L587.52 165.5L587.52 215.5L544.22 240.5L500.92 215.5L500.92 165.5zM630.83 -9.5L674.13 15.5L674.13 65.5L630.83 90.5L587.52 65.5L587.52 15.5zM674.13 215.5L717.43 240.5L717.43 290.5L674.13 315.5L630.83 290.5L630.83 240.5zM630.83 290.5L674.13 315.5L674.13 365.5L630.83 390.5L587.52 365.5L587.52 315.5zM630.83 440.5L674.13 465.5L674.13 515.5L630.83 540.5L587.52 515.5L587.52 465.5zM717.43 -9.5L760.73 15.5L760.73 65.5L717.43 90.5L674.13 65.5L674.13 15.5zM760.73 65.5L804.04 90.5L804.04 140.5L760.73 165.5L717.43 140.5L717.43 90.5zM760.73 215.5L804.04 240.5L804.04 290.5L760.73 315.5L717.43 290.5L717.43 240.5zM847.34 65.5L890.64 90.5L890.64 140.5L847.34 165.5L804.04 140.5L804.04 90.5zM847.34 365.5L890.64 390.5L890.64 440.5L847.34 465.5L804.04 440.5L804.04 390.5zM847.34 515.5L890.64 540.5L890.64 590.5L847.34 615.5L804.04 590.5L804.04 540.5zM890.64 140.5L933.94 165.5L933.94 215.5L890.64 240.5L847.34 215.5L847.34 165.5zM933.94 365.5L977.25 390.5L977.25 440.5L933.94 465.5L890.64 440.5L890.64 390.5zM890.64 440.5L933.94 465.5L933.94 515.5L890.64 540.5L847.34 515.5L847.34 465.5zM977.25 290.5L1020.55 315.5L1020.55 365.5L977.25 390.5L933.94 365.5L933.94 315.5zM1063.85 290.5L1107.15 315.5L1107.15 365.5L1063.85 390.5L1020.55 365.5L1020.55 315.5zM1107.15 365.5L1150.45 390.5L1150.45 440.5L1107.15 465.5L1063.85 440.5L1063.85 390.5zM1280.36 215.5L1323.66 240.5L1323.66 290.5L1280.36 315.5L1237.06 290.5L1237.06 240.5zM1237.06 290.5L1280.36 315.5L1280.36 365.5L1237.06 390.5L1193.76 365.5L1193.76 315.5zM1237.06 440.5L1280.36 465.5L1280.36 515.5L1237.06 540.5L1193.76 515.5L1193.76 465.5zM1366.97 65.5L1410.27 90.5L1410.27 140.5L1366.97 165.5L1323.66 140.5L1323.66 90.5zM1323.66 140.5L1366.97 165.5L1366.97 215.5L1323.66 240.5L1280.36 215.5L1280.36 165.5zM1323.66 440.5L1366.97 465.5L1366.97 515.5L1323.66 540.5L1280.36 515.5L1280.36 465.5zM1366.97 515.5L1410.27 540.5L1410.27 590.5L1366.97 615.5L1323.66 590.5L1323.66 540.5z" stroke="rgba(6, 80, 156, 0.93)" stroke-width="2"></path></g><defs><mask id="SvgjsMask1002"><rect width="1440" height="560" fill="#ffffff"></rect></mask></defs></svg>