<svg xmlns="http://www.w3.org/2000/svg" version="1.1" xmlns:xlink="http://www.w3.org/1999/xlink" xmlns:svgjs="http://svgjs.dev/svgjs" width="1440" height="560" preserveAspectRatio="none" viewBox="0 0 1440 560"><g mask="url(&quot;#SvgjsMask1000&quot;)" fill="none"><rect width="1440" height="560" x="0" y="0" fill="#0e2a47"></rect><path d="M0 91.54C53.66 43.95 71.85 56.1 140 15.85C149.35 10.33 144.6 1.18 155 0C214.6 -6.75 217.5 0 280 0C350 0 350 0 420 0C490 0 490 0 560 0C630 0 630 0 700 0C753.53 0 796.49 -29.06 807.06 0C821.95 40.94 754.01 69.03 750.91 140C747.9 209.03 762.7 217.17 794.84 280C807.24 304.24 814.09 314.15 840 314.15C900.3 314.15 952.52 320.2 967.27 280C984.47 233.12 928.75 212.32 903.91 140C880.67 72.32 849.46 39.83 871.11 0C887.51 -30.17 925.56 0 980 0C1050 0 1050 0 1120 0C1190 0 1190 0 1260 0C1330 0 1330 0 1400 0C1467.82 0 1502.75 -34.44 1535.63 0C1569.57 35.56 1531.57 71.61 1533.64 140C1533.75 143.73 1539.83 140.51 1540 144.24C1543.01 210.51 1540 212.12 1540 280C1540 350 1540 350 1540 420C1540 490 1575 525 1540 560C1505 595 1470 560 1400 560C1330 560 1330 560 1260 560C1190 560 1190 560 1120 560C1050 560 1050 560 980 560C910 560 910 560 840 560C770 560 770 560 700 560C630 560 630 560 560 560C490 560 490 560 420 560C350 560 350 560 280 560C212.12 560 211.08 562.31 144.24 560C141.08 559.89 142.53 555.17 140 555.17C136.17 555.17 136.36 559.83 131.52 560C66.36 562.25 31.85 593.91 0 560C-33.91 523.91 0 490 0 420C0 350 0 350 0 280C0 210 0 210 0 140C0 115.77 -16.34 106.03 0 91.54" stroke="rgba(51, 121, 194, 0.58)" stroke-width="2"></path><path d="M1120 85.42C1081.11 89.52 1052.92 109.87 1052.92 140C1052.92 175.49 1077.74 210.66 1120 216.67C1181.28 225.39 1191.73 196.89 1260 169.47C1287.18 158.55 1310.91 153.21 1310.91 140C1310.91 127.56 1286.55 125.77 1260 118.18C1191.09 98.48 1184.65 78.61 1120 85.42" stroke="rgba(51, 121, 194, 0.58)" stroke-width="2"></path><path d="M560 388.39C515.09 393.73 473.53 395.89 473.53 420C473.53 450.38 510.77 492.76 560 497.37C624 503.36 633.05 473.7 700 441.21C712.77 435.01 719.44 431.17 719.44 420C719.44 407.11 715.28 396.11 700 393.08C635.56 380.3 628.33 380.27 560 388.39" stroke="rgba(51, 121, 194, 0.58)" stroke-width="2"></path><path d="M58.95 140C96.33 107.39 102.79 114.75 140 81.89C182.07 44.75 172.46 26.34 217.5 0C242.46 -14.6 248.75 0 280 0C350 0 350 0 420 0C490 0 490 0 560 0C613.2 0 666.4 -22.67 666.4 0C666.4 32.74 623.92 75.24 560 110.83C500.72 143.84 489.81 123.35 420 137.2C416.31 137.93 414.79 136.73 413 140C375.59 208.13 385.42 216.38 341.6 280C318.92 312.93 305.21 301.87 280 333.1C248.7 371.87 228.57 380.78 228.57 420C228.57 446.34 254.88 441.44 280 464.21C332.1 511.44 383.02 532.35 383.02 560C383.02 580.25 331.51 560 280 560C238.63 560 231.44 575.91 197.27 560C161.44 543.32 174.1 494.83 140 494.83C88.19 494.83 84.12 532.69 25.45 560C14.12 565.27 1.96 570.77 0 560C-10.77 500.77 0 490 0 420C0 350 0 350 0 280C0 242 -13.74 236.64 0 204C15.73 166.64 26.33 168.45 58.95 140" stroke="rgba(51, 121, 194, 0.58)" stroke-width="2"></path><path d="M1120 26.1C1084.71 13.88 1050 6.74 1050 0C1050 -6.31 1085 0 1120 0C1190 0 1190 0 1260 0C1330 0 1330 0 1400 0C1413.13 0 1426.25 -9.65 1426.25 0C1426.25 32.35 1432.02 69.99 1400 84C1348.9 106.36 1328.27 86.85 1260 72.73C1188.27 57.9 1189.71 50.24 1120 26.1" stroke="rgba(51, 121, 194, 0.58)" stroke-width="2"></path><path d="M452.13 280C452.13 228.75 503.48 164.56 560 164.56C621.93 164.56 689.02 229.68 689.02 280C689.02 322.77 623.11 350.75 560 350.75C504.67 350.75 452.13 321.85 452.13 280" stroke="rgba(51, 121, 194, 0.58)" stroke-width="2"></path><path d="M1152.31 280C1152.31 249.36 1209.12 230.88 1260 230.88C1294.08 230.88 1290.06 256.89 1322.22 280C1360.06 307.19 1359.24 331.47 1400 331.47C1452.82 331.47 1457.64 310 1509.38 280C1527.64 269.41 1530.97 250.3 1540 250.3C1546.28 250.3 1540 265.15 1540 280C1540 310.63 1545.17 311.4 1540 341.25C1533.05 381.4 1540.87 389.53 1515.77 420C1470.87 474.51 1458.5 466.42 1400 511.21C1367.08 536.42 1370.17 547.02 1332.92 560C1300.17 571.41 1296.46 560 1260 560C1216.25 560 1172.5 578.45 1172.5 560C1172.5 533.58 1218.98 517.37 1260 470.26C1279.93 447.37 1294.39 445.66 1294.39 420C1294.39 391.71 1283.53 385.53 1260 362.35C1212.49 315.53 1152.31 315.09 1152.31 280" stroke="rgba(51, 121, 194, 0.58)" stroke-width="2"></path><path d="M816.67 420C827.34 408.74 827.06 399.51 840 399.51C858.73 399.51 862.31 406.35 880 420C932.31 460.35 931.08 462.59 980 507.5C1007.33 532.59 1032.5 544.62 1032.5 560C1032.5 570.87 1006.25 560 980 560C910 560 910 560 840 560C770 560 770 560 700 560C680.91 560 661.82 563.1 661.82 560C661.82 556.73 685.36 560.5 700 547.27C762.79 490.5 757.34 482.62 816.67 420" stroke="rgba(51, 121, 194, 0.58)" stroke-width="2"></path><path d="M420 67.2C347.12 57.33 280 17.67 280 0C280 -15.93 350 0 420 0C490 0 490 0 560 0C578.2 0 596.4 -7.76 596.4 0C596.4 11.2 583.7 28.89 560 37.92C495.5 62.49 487.12 76.29 420 67.2" stroke="rgba(51, 121, 194, 0.58)" stroke-width="2"></path><path d="M1260 27.27C1224.17 27.27 1187.59 7.04 1187.59 0C1187.59 -6.59 1223.8 0 1260 0C1290.88 0 1321.76 -6.51 1321.76 0C1321.76 7.12 1291.26 27.27 1260 27.27" stroke="rgba(51, 121, 194, 0.58)" stroke-width="2"></path><path d="M509.51 280C509.51 256.01 533.55 225.96 560 225.96C588.99 225.96 620.39 256.44 620.39 280C620.39 300.02 589.54 313.12 560 313.12C534.1 313.12 509.51 299.59 509.51 280" stroke="rgba(51, 121, 194, 0.58)" stroke-width="2"></path><path d="M0 336C44.92 326.71 75.8 356.71 140 391.03C154.37 398.71 157.14 406.96 157.14 420C157.14 428.69 150.64 431.43 140 434.48C72.07 453.93 53.27 470.51 0 465C-16.73 463.27 0 442.5 0 420C0 378 -25.08 341.19 0 336" stroke="rgba(51, 121, 194, 0.58)" stroke-width="2"></path><path d="M1355.79 420C1355.79 401.31 1377.48 382.94 1400 382.94C1423.82 382.94 1448.46 401.3 1448.46 420C1448.46 438.92 1423.8 458.18 1400 458.18C1377.47 458.18 1355.79 438.93 1355.79 420" stroke="rgba(51, 121, 194, 0.58)" stroke-width="2"></path><path d="M250.3 560C250.3 549.6 264.21 525.61 280 525.61C297.55 525.61 316.98 550.07 316.98 560C316.98 567.27 298.49 560 280 560C265.15 560 250.3 566.8 250.3 560" stroke="rgba(51, 121, 194, 0.58)" stroke-width="2"></path></g><defs><mask id="SvgjsMask1000"><rect width="1440" height="560" fill="#ffffff"></rect></mask></defs></svg>