<svg width="80" height="80" viewBox="0 0 80 80" fill="none" xmlns="http://www.w3.org/2000/svg">
<g id="link-2">
<path id="Vector" d="M49.9999 23.3334L59.9999 23.3334C62.1886 23.3334 64.3559 23.7645 66.378 24.602C68.4001 25.4396 70.2374 26.6673 71.785 28.2149C73.3327 29.7626 74.5603 31.5999 75.3979 33.622C76.2355 35.6441 76.6666 37.8113 76.6666 40C76.6666 42.1887 76.2355 44.356 75.3979 46.3781C74.5603 48.4002 73.3327 50.2375 71.785 51.7852C70.2374 53.3328 68.4001 54.5605 66.378 55.398C64.3559 56.2356 62.1886 56.6667 59.9999 56.6667H49.9999M29.9999 56.6667H19.9999C17.8112 56.6667 15.644 56.2356 13.6219 55.398C11.5998 54.5605 9.76245 53.3328 8.21481 51.7852C5.0892 48.6595 3.33325 44.4203 3.33325 40C3.33325 35.5798 5.0892 31.3405 8.21481 28.2149C11.3404 25.0893 15.5796 23.3334 19.9999 23.3334H29.9999" stroke="#141414" stroke-width="2" stroke-linecap="round" stroke-linejoin="round"/>
<path id="Vector_2" d="M26.6667 40H53.3334" stroke="#141414" stroke-width="2" stroke-linecap="round" stroke-linejoin="round"/>
</g>
</svg>
