<svg xmlns="http://www.w3.org/2000/svg" version="1.1" xmlns:xlink="http://www.w3.org/1999/xlink" xmlns:svgjs="http://svgjs.dev/svgjs" width="1440" height="560" preserveAspectRatio="none" viewBox="0 0 1440 560"><g mask="url(&quot;#SvgjsMask1018&quot;)" fill="none"><rect width="1440" height="560" x="0" y="0" fill="#0e2a47"></rect><path d="M958 558L957 813" stroke-width="6" stroke="url(&quot;#SvgjsLinearGradient1019&quot;)" stroke-linecap="round" class="Up"></path><path d="M641 275L640 -141" stroke-width="6" stroke="url(&quot;#SvgjsLinearGradient1020&quot;)" stroke-linecap="round" class="Down"></path><path d="M288 436L287 228" stroke-width="10" stroke="url(&quot;#SvgjsLinearGradient1019&quot;)" stroke-linecap="round" class="Up"></path><path d="M1392 165L1391 545" stroke-width="6" stroke="url(&quot;#SvgjsLinearGradient1019&quot;)" stroke-linecap="round" class="Up"></path><path d="M1169 432L1168 275" stroke-width="6" stroke="url(&quot;#SvgjsLinearGradient1020&quot;)" stroke-linecap="round" class="Down"></path><path d="M1099 135L1098 550" stroke-width="8" stroke="url(&quot;#SvgjsLinearGradient1019&quot;)" stroke-linecap="round" class="Up"></path><path d="M638 275L637 -56" stroke-width="6" stroke="url(&quot;#SvgjsLinearGradient1019&quot;)" stroke-linecap="round" class="Up"></path><path d="M1085 303L1084 47" stroke-width="8" stroke="url(&quot;#SvgjsLinearGradient1020&quot;)" stroke-linecap="round" class="Down"></path><path d="M737 239L736 -13" stroke-width="6" stroke="url(&quot;#SvgjsLinearGradient1019&quot;)" stroke-linecap="round" class="Up"></path><path d="M1085 426L1084 595" stroke-width="6" stroke="url(&quot;#SvgjsLinearGradient1019&quot;)" stroke-linecap="round" class="Up"></path><path d="M1130 111L1129 -82" stroke-width="6" stroke="url(&quot;#SvgjsLinearGradient1020&quot;)" stroke-linecap="round" class="Down"></path><path d="M44 4L43 271" stroke-width="6" stroke="url(&quot;#SvgjsLinearGradient1020&quot;)" stroke-linecap="round" class="Down"></path><path d="M1066 124L1065 -68" stroke-width="8" stroke="url(&quot;#SvgjsLinearGradient1020&quot;)" stroke-linecap="round" class="Down"></path><path d="M487 521L486 255" stroke-width="10" stroke="url(&quot;#SvgjsLinearGradient1020&quot;)" stroke-linecap="round" class="Down"></path><path d="M1211 13L1210 243" stroke-width="6" stroke="url(&quot;#SvgjsLinearGradient1019&quot;)" stroke-linecap="round" class="Up"></path><path d="M77 479L76 833" stroke-width="6" stroke="url(&quot;#SvgjsLinearGradient1020&quot;)" stroke-linecap="round" class="Down"></path><path d="M447 500L446 181" stroke-width="8" stroke="url(&quot;#SvgjsLinearGradient1020&quot;)" stroke-linecap="round" class="Down"></path><path d="M107 16L106 296" stroke-width="10" stroke="url(&quot;#SvgjsLinearGradient1019&quot;)" stroke-linecap="round" class="Up"></path><path d="M12 443L11 171" stroke-width="6" stroke="url(&quot;#SvgjsLinearGradient1020&quot;)" stroke-linecap="round" class="Down"></path><path d="M285 211L284 -73" stroke-width="10" stroke="url(&quot;#SvgjsLinearGradient1020&quot;)" stroke-linecap="round" class="Down"></path><path d="M968 137L967 -230" stroke-width="8" stroke="url(&quot;#SvgjsLinearGradient1020&quot;)" stroke-linecap="round" class="Down"></path><path d="M900 108L899 475" stroke-width="10" stroke="url(&quot;#SvgjsLinearGradient1020&quot;)" stroke-linecap="round" class="Down"></path><path d="M716 462L715 756" stroke-width="10" stroke="url(&quot;#SvgjsLinearGradient1019&quot;)" stroke-linecap="round" class="Up"></path><path d="M1345 448L1344 752" stroke-width="6" stroke="url(&quot;#SvgjsLinearGradient1020&quot;)" stroke-linecap="round" class="Down"></path><path d="M257 320L256 634" stroke-width="6" stroke="url(&quot;#SvgjsLinearGradient1020&quot;)" stroke-linecap="round" class="Down"></path><path d="M98 78L97 459" stroke-width="8" stroke="url(&quot;#SvgjsLinearGradient1019&quot;)" stroke-linecap="round" class="Up"></path><path d="M1162 225L1161 559" stroke-width="10" stroke="url(&quot;#SvgjsLinearGradient1020&quot;)" stroke-linecap="round" class="Down"></path><path d="M1065 218L1064 502" stroke-width="10" stroke="url(&quot;#SvgjsLinearGradient1019&quot;)" stroke-linecap="round" class="Up"></path><path d="M779 411L778 63" stroke-width="8" stroke="url(&quot;#SvgjsLinearGradient1019&quot;)" stroke-linecap="round" class="Up"></path><path d="M139 27L138 201" stroke-width="10" stroke="url(&quot;#SvgjsLinearGradient1020&quot;)" stroke-linecap="round" class="Down"></path><path d="M1101 465L1100 192" stroke-width="8" stroke="url(&quot;#SvgjsLinearGradient1019&quot;)" stroke-linecap="round" class="Up"></path><path d="M377 440L376 750" stroke-width="8" stroke="url(&quot;#SvgjsLinearGradient1020&quot;)" stroke-linecap="round" class="Down"></path><path d="M363 367L362 769" stroke-width="8" stroke="url(&quot;#SvgjsLinearGradient1019&quot;)" stroke-linecap="round" class="Up"></path><path d="M1065 472L1064 248" stroke-width="6" stroke="url(&quot;#SvgjsLinearGradient1019&quot;)" stroke-linecap="round" class="Up"></path><path d="M62 403L61 57" stroke-width="8" stroke="url(&quot;#SvgjsLinearGradient1020&quot;)" stroke-linecap="round" class="Down"></path><path d="M262 259L261 -56" stroke-width="8" stroke="url(&quot;#SvgjsLinearGradient1020&quot;)" stroke-linecap="round" class="Down"></path></g><defs><mask id="SvgjsMask1018"><rect width="1440" height="560" fill="#ffffff"></rect></mask><linearGradient x1="0%" y1="100%" x2="0%" y2="0%" id="SvgjsLinearGradient1019"><stop stop-color="rgba(28, 83, 142, 0)" offset="0"></stop><stop stop-color="#1c538e" offset="1"></stop></linearGradient><linearGradient x1="0%" y1="0%" x2="0%" y2="100%" id="SvgjsLinearGradient1020"><stop stop-color="rgba(28, 83, 142, 0)" offset="0"></stop><stop stop-color="#1c538e" offset="1"></stop></linearGradient></defs></svg>