<svg xmlns="http://www.w3.org/2000/svg" version="1.1" xmlns:xlink="http://www.w3.org/1999/xlink" xmlns:svgjs="http://svgjs.dev/svgjs" width="1440" height="560" preserveAspectRatio="none" viewBox="0 0 1440 560"><g mask="url(&quot;#SvgjsMask1000&quot;)" fill="none"><rect width="1440" height="560" x="0" y="0" fill="#0e2a47"></rect><path d="M 0,133 C 57.6,154.6 172.8,242.4 288,241 C 403.2,239.6 460.8,138.2 576,126 C 691.2,113.8 748.8,190.4 864,180 C 979.2,169.6 1036.8,79.6 1152,74 C 1267.2,68.4 1382.4,136.4 1440,152L1440 560L0 560z" fill="#184a7e"></path><path d="M 0,361 C 96,396 288,531.4 480,536 C 672,540.6 768,380.6 960,384 C 1152,387.4 1344,519.2 1440,553L1440 560L0 560z" fill="#2264ab"></path></g><defs><mask id="SvgjsMask1000"><rect width="1440" height="560" fill="#ffffff"></rect></mask></defs></svg>